<svg id="Calque_1" data-name="Calque 1" xmlns="http://www.w3.org/2000/svg" viewBox="0 0 1513.39 487.73"><defs><style>.cls-1{fill:#273375;}.cls-2{fill:#1d1d1b;}.cls-3{fill:#e30613;}.cls-4{fill:#9d9d9c;}.cls-5{fill:#0e988e;}.cls-6{fill:#009f79;}.cls-7{fill:#8e8ab4;}.cls-8{fill:#96cfbe;}</style></defs><path class="cls-1" d="M1431,131.14h-24.17c4.34,4.36,28.48,35.38,28.48,75,0,40.92-23.57,70.89-29.12,76.4h25.15c16-15.07,26.6-46.75,26.6-76.4,0-29.36-9.56-57.63-26.94-75" transform="translate(0.04 -0.01)"/><path class="cls-1" d="M1483.82,131.14h-24.19c4.34,4.36,28.49,35.38,28.49,75,0,40.92-23.57,70.89-29.13,76.4h25.15c16-15.07,26.61-46.75,26.61-76.4,0-29.36-9.57-57.63-26.93-75" transform="translate(0.04 -0.01)"/><path class="cls-1" d="M907.7,131.29H883.52c4.33,4.38,28.44,35.38,28.44,75,0,40.93-23.56,70.9-29.13,76.41H908c16-15.08,26.61-46.76,26.61-76.41,0-29.36-9.56-57.62-26.93-75" transform="translate(0.04 -0.01)"/><path class="cls-2" d="M19.22,486.73l.47-1.48c-6.31-1.18-7.11-1.18-4.6-8.05l2.56-7.07h7c3.13,0,3.18,1.28,2.71,4.7h1.8l4.17-11.43h-1.8c-1.57,2.7-2.8,4.7-6.21,4.7H18.44l3.66-10c1.13-3.18,1.79-3.84,6.06-3.84h3c4.4,0,4.93,1.19,4.93,5.65h1.75l1.47-7.78H13.15l-.47,1.47c5.07,1,5.55,1.52,3.17,8.06L10.16,477.2c-2.37,6.49-3.36,7-9.19,8.05l-.43,1.48Zm36.31-19.06c.9-3.08.43-5.78-2-5.78-2.79,0-3.51,2.13-6.35,8.24v-3.46c0-2.51-.8-4.73-3.08-4.73-2.65,0-5.07,4.12-6.92,8.2h1.23c1.28-1.85,2.47-2.94,3.41-2.94,1.15,0,1.76,1.75,0,5.63l-5.11,11.38c-1,2.14,0,3.51,2.13,3.51a2.11,2.11,0,0,0,2.37-1.7l5-13.33c1.42-1.75,2.7-3.27,4.32-5Zm23-6.87-2-.14-2.23,2.18h-.47c-10.81,0-20.15,12.13-20.15,21A3.59,3.59,0,0,0,57,487.72a3.21,3.21,0,0,0,.62,0c2.8,0,5.54-4,8.62-8.25L66.05,481c-.37,4.37,1,6.73,3.23,6.73,2.66,0,5.07-4.12,6.92-8.2H75c-1.27,1.85-2.46,2.94-3.41,2.94s-1.7-1.8,0-5.64Zm-20,19.48c0-5.83,6.49-13.75,10.14-13.75a8,8,0,0,1,2.23.29l-3.79,10.09c-2.19,2.65-5.55,5.88-7.12,5.88-.89,0-1.46-.76-1.46-2.51m23.93-14.75h4.36L80,484.45c-.62,1.61.23,3.22,1.89,3.22,3.93,0,10.29-3.88,12.51-9.2h-1.2c-1.75,1.85-5.12,4.32-8,4.84l6.35-17.78H98l.81-2.69h-6.3L94.88,456H92.37l-4.5,6.84-5.36.76Zm30.95,13h-1.6c-2,2.41-4.23,4.31-6.41,4.31s-3.36-1.33-3.36-4.31a17.57,17.57,0,0,1,.38-3.61l13.13-4.31c2.56-6.07-.52-8.72-4.13-8.72-6.2,0-13.27,10.38-13.27,19.48,0,4.08,2,6.3,5,6.3,3.55,0,7.25-3.46,10.28-9.14M109,465.39c1.75,0,3.27,1.33,2.47,4.7L103.27,472c1.42-3.79,3.8-6.59,5.69-6.59m29.14,2.28c.9-3.08.42-5.78-1.95-5.78-2.79,0-3.51,2.13-6.35,8.24v-3.46c0-2.51-.8-4.73-3.08-4.73-2.65,0-5.07,4.12-6.92,8.2H121c1.28-1.85,2.47-2.94,3.41-2.94,1.14,0,1.76,1.75,0,5.63l-5.11,11.38c-1,2.14,0,3.51,2.13,3.51a2.11,2.11,0,0,0,2.37-1.7l5-13.33c1.42-1.75,2.7-3.27,4.32-5Zm.09,16.49c-.95,2.14.05,3.51,2.13,3.51a2.13,2.13,0,0,0,2.38-1.7l5-13.33c2.33-2.84,7.11-5.87,9-5.87,1.37,0,1.17,1.14.28,2.84l-7.73,14.84a2.19,2.19,0,0,0,.88,3,2.12,2.12,0,0,0,1,.26c3.79,0,8.29-3.41,10.09-8.2H160c-1.23,1.75-3.31,3.7-5.26,4l6.63-13.41a10.61,10.61,0,0,0,1.28-4.6,3.26,3.26,0,0,0-2.89-3.59,3.11,3.11,0,0,0-.61,0c-3.28,0-6.59,3.7-10.53,8.24v-3.43c0-2.51-.8-4.73-3.08-4.73-1.42,0-2.79,1.23-4.07,3v.48c2.46-.15,3.55,3.55,1.8,7.43Zm41.75-29a3.14,3.14,0,0,0,3.14-3.13,3.18,3.18,0,0,0-3.14-3.13,3.14,3.14,0,0,0-3.12,3.13,3.09,3.09,0,0,0,3.05,3.13h.07m-1.32,9.51a1.94,1.94,0,0,0-1-2.57,1.85,1.85,0,0,0-.61-.17c-3.8,0-8.3,3.41-10.1,8.2h1.23c1.23-1.76,3.32-3.7,5.26-4L166.2,485a1.89,1.89,0,0,0,.92,2.51,2,2,0,0,0,.64.17c3.61,0,7.83-3.46,9.63-8.2h-1.23c-1.23,1.75-3.32,3.7-5.26,4Zm5.88.9h4.36L182,484.45c-.61,1.61.25,3.22,1.91,3.22,3.93,0,10.28-3.88,12.51-9.2h-1.23c-1.76,1.85-5.12,4.32-8,4.84l6.35-17.78H200l.8-2.69h-6.3l2.42-6.84h-2.52l-4.5,6.84-5.36.76Zm28.34-6.06,9.25-8.63v-1h-5l-5.69,9.63Zm2.61,19.06h-1.62c-2,2.41-4.21,4.31-6.39,4.31s-3.37-1.33-3.37-4.31a19.07,19.07,0,0,1,.38-3.61l13.14-4.31c2.55-6.07-.53-8.72-4.13-8.72-6.21,0-13.27,10.38-13.27,19.48,0,4.08,1.94,6.3,5,6.3,3.56,0,7.25-3.46,10.29-9.14M211,465.39c1.75,0,3.27,1.33,2.46,4.7L205.27,472c1.42-3.79,3.79-6.59,5.69-6.59" transform="translate(0.04 -0.01)"/><path class="cls-2" d="M28.6,390.55l9.24-6.35v-1H32.25l-5.11,7.34Zm-3.79,19.86c3.13,0,3.17,1.28,2.7,4.7h1.8l4.17-11.44h-1.8c-1.56,2.7-2.79,4.69-6.21,4.69H18.6l3.46-9.53c1.14-3.17,1.81-3.79,6.07-3.79h3c4.41,0,4.93,1.19,4.93,5.6h1.75l1.48-7.78H13.15l-.47,1.47c5.07,1.05,5.54,1.52,3.18,8.06l-5.69,15.55c-2.38,6.49-3.37,7-9.2,8.05l-.43,1.48h29.1l5.22-8.26h-2c-3.31,3.14-7.49,6.12-13.32,6.12-7.73,0-7-.33-4.45-7.39l2.75-7.54ZM58,430.67c0-3-2.71-4.13-7.11-5.45-3.8-1.14-5.5-1.47-5.5-2.7,0-1,.8-2.18,2.42-3A11,11,0,0,0,58,408.89a6.47,6.47,0,0,0-.52-2.61H62.7l.81-2.69H55.17a6.45,6.45,0,0,0-3.37-.95A11,11,0,0,0,41,413.12a6.1,6.1,0,0,0,5,6.3c-3.08,1.37-4.79,3-4.79,4.88a3,3,0,0,0,1.28,2.56c-7.11,2.08-9.91,4.46-9.91,7.82s4.32,4.65,9.44,4.65c8.67,0,15.93-4.7,15.93-8.63m-10.25-13c-1.57,0-2.18-1.33-2.18-2.84,0-4.22,2.28-10.44,5.83-10.44,1.56,0,2.18,1.34,2.18,2.85,0,4.22-2.28,10.43-5.83,10.43M37.84,433c0-2.51,2.42-4.08,5.89-5.45a42.1,42.1,0,0,0,5.12,1.94c3.59,1.19,5,1.66,5,2.75,0,2.32-3.93,4.07-9.29,4.07-4.5,0-6.69-.94-6.69-3.31m48.26-31.47-2-.14-2.23,2.18h-.47c-10.81,0-20.15,12.13-20.15,20.95a3.59,3.59,0,0,0,3.27,3.88,3.21,3.21,0,0,0,.62,0c2.8,0,5.55-4,8.63-8.25l-.14,1.52c-.39,4.37.94,6.73,3.22,6.73,2.65,0,5.07-4.12,6.91-8.2H82.56c-1.28,1.85-2.46,2.94-3.41,2.94s-1.71-1.8,0-5.64ZM66.13,421c0-5.83,6.5-13.75,10.15-13.75a7.92,7.92,0,0,1,2.22.29l-3.78,10.14c-2.17,2.65-5.54,5.88-7.1,5.88-.91,0-1.48-.76-1.48-2.51m25.12,3.22,13.23-34.65-.43-.52-8.3,1v1l1.62,1.23c1.46,1.15,1,2.24-.33,5.75l-10.33,27.2a2.17,2.17,0,0,0,.85,2.95,2.12,2.12,0,0,0,1,.27c3.79,0,7.83-3.41,9.62-8.2H97c-1.24,1.75-3.79,3.7-5.74,4m25.22-28.34a3.1,3.1,0,1,0-.06,0h.06m-1.33,9.48c.53-1.76-.66-2.75-1.56-2.75-3.8,0-8.3,3.41-10.1,8.2h1.23c1.24-1.76,3.32-3.7,5.27-4l-7.21,18.84a1.88,1.88,0,0,0,.79,2.54,2.05,2.05,0,0,0,.77.21c3.6,0,7.82-3.45,9.62-8.2h-1.23c-1.23,1.75-3.31,3.7-5.26,4Zm5.88.89h4.37l-6.93,18.92c-.61,1.61.24,3.22,1.9,3.22,3.93,0,10.29-3.88,12.51-9.2h-1.23c-1.75,1.85-5.12,4.32-8,4.84L130,406.28h6.51l.8-2.69H131l2.42-6.83h-2.52l-4.5,6.83-5.36.76Zm28.34-6.06,9.25-8.63v-1h-5L148,400.22ZM152,419.28h-1.61c-2,2.41-4.22,4.31-6.4,4.31s-3.37-1.33-3.37-4.31a17.57,17.57,0,0,1,.38-3.61l13.12-4.31c2.57-6.07-.51-8.72-4.12-8.72-6.21,0-13.27,10.38-13.27,19.48,0,4.08,2,6.3,5,6.3,3.56,0,7.26-3.45,10.29-9.14m-4.5-13.14c1.75,0,3.27,1.33,2.46,4.7l-8.15,1.89c1.42-3.79,3.8-6.59,5.69-6.59" transform="translate(0.04 -0.01)"/><path class="cls-2" d="M30.31,333.67H13.05l-.47,1.47c5.07,1.05,5.55,1.52,3.18,8.06l-5.59,15.47c-2.38,6.49-3.37,7-9.2,8.05l-.43,1.47H26.8l5.69-10.14h-2c-3.22,3.55-7,8-12.85,8-4.4,0-4.93-.76-2.55-7.39l5.59-15.55c2.32-6.49,3.37-7,9.19-8.06Zm19.1,3a3.1,3.1,0,1,0-.06,0h.06m-1.32,9.48c.51-1.76-.67-2.75-1.57-2.75-3.79,0-8.29,3.41-10.1,8.2h1.24c1.23-1.75,3.31-3.7,5.26-4l-7.26,18.86a1.88,1.88,0,0,0,.82,2.54,2,2,0,0,0,.75.21c3.61,0,7.82-3.45,9.62-8.2H45.62c-1.23,1.75-3.32,3.7-5.26,4Zm25.78,2.52c0-3.84-1.42-5.26-4.08-5.26-3.32,0-6.44,3.51-9.58,7.77l7.93-20.81-.43-.52-8.3.95v1L61,333c1.46,1.15,1,2.33-.34,5.75l-8.53,22a25.54,25.54,0,0,0-1.38,4c0,2.28,3.08,4.41,5.88,4.41,6.45,0,17.21-11.61,17.21-20.52M59,365.33c-1.28,0-3.13-1.18-3.13-2.22a25.87,25.87,0,0,1,1.28-3.65l2.13-5.65c2.28-2.7,5.74-5.59,7.68-5.59,1.18,0,2.08.76,2.08,2.51,0,5.17-4.83,14.6-10,14.6M91.18,360H89.57c-2,2.41-4.22,4.31-6.4,4.31S79.8,363,79.8,360a18.3,18.3,0,0,1,.39-3.61l13.13-4.32c2.55-6.06-.53-8.71-4.13-8.71-6.21,0-13.27,10.38-13.27,19.48,0,4.08,1.94,6.3,5,6.3,3.56,0,7.25-3.45,10.29-9.14m-4.5-13.13c1.75,0,3.27,1.32,2.47,4.69L81,353.48c1.42-3.79,3.79-6.58,5.69-6.58m29.11,2.27c.89-3.08.41-5.78-2-5.78-2.8,0-3.51,2.13-6.35,8.24v-3.5c0-2.52-.8-4.74-3.08-4.74-2.66,0-5.07,4.12-6.92,8.2h1.23c1.28-1.85,2.46-2.94,3.41-2.94,1.13,0,1.75,1.75,0,5.64L97,365.67c-.94,2.14,0,3.51,2.14,3.51a2.09,2.09,0,0,0,2.36-1.7l5-13.32c1.42-1.76,2.7-3.28,4.32-5Zm3.41-2.13h3.45L115.7,366c-.62,1.61.24,3.22,1.9,3.22,3.93,0,10.28-3.88,12.51-9.2h-1.23c-1.76,1.86-5.11,4.32-8,4.84L127.23,347h6.49l.81-2.7h-6.3l2.41-6.83h-2.51l-4.5,6.83-4.45.76ZM146.32,341l9.25-8.63v-1h-5L144.88,341ZM148.93,360h-1.61c-2,2.41-4.22,4.31-6.4,4.31s-3.37-1.33-3.37-4.31a18.3,18.3,0,0,1,.39-3.61l13.12-4.32c2.56-6.06-.52-8.71-4.12-8.71-6.21,0-13.27,10.38-13.27,19.48,0,4.08,1.94,6.3,5,6.3,3.56,0,7.25-3.45,10.29-9.14m-4.5-13.13c1.75,0,3.27,1.32,2.47,4.69l-8.16,1.89c1.42-3.79,3.79-6.58,5.69-6.58" transform="translate(0.04 -0.01)"/><path class="cls-1" d="M69.6,61.51c-.16-.17.48,0,.65-.32H69c-.16,0-.16-.17-.16-.33-.81.16-1.79.48-2.6.65-1.13.32-2.11,1.13-3.4,1.46-1.79.64-3.25,2.11-5.19,2.75-.17,0-.17-.15-.17-.32.17-.49.81-.64,1.13-1.13,0-.17,0-.33-.15-.33,1.3-1.78,3.08-2.75,4.7-4.22v-.48c.49-.65,1.3-1,1.62-1.79A2.87,2.87,0,0,1,66.37,56c-.17-.17-.49-.17-.49-.49-.65,0-1.3.32-1.95-.17a2.44,2.44,0,0,1,1-.57.57.57,0,0,1-.36-.24c-.16-.32.31-.68.81-.81.65-.16,1.46-.16,1.94-.65-1.13-.16-2.42.33-3.56-.32a8.69,8.69,0,0,1,4-4.87c.17,0,.49,0,.49.17A1.59,1.59,0,0,1,67,49.67a16.86,16.86,0,0,1,3.89,1c-.15.32-.48.16-.64.16.81.49,1.78.16,2.59.82-.48.48-1,0-1.46,0,5,1.45,10.38,2.59,14.6,5.83a44.77,44.77,0,0,1-11.2,3.41,3.52,3.52,0,0,1-1.29-.16c0,.16,0,.49-.16.49a2.73,2.73,0,0,0-1.63.32c-.64.32-1.62.49-2.1,0M66.24,72.82h0c-.6.43-1.21.86-1.85,1.24a18.08,18.08,0,0,1-2.13,1h0A.21.21,0,0,0,62,75a7.36,7.36,0,0,0-1.63,1.25,2.39,2.39,0,0,0-.23.22h0l-.22.23h0s-.22.23-.34.38a1.15,1.15,0,0,1-.22.22c-.11.07-.39.07-.36-.12h0l-.29.14-.25.13h-.23c-.2.16-.4.32-.59.5a9,9,0,0,0-1,1h0V79l-.06.07h0c0,.06-.08.12-.12.17h0a.2.2,0,0,1-.14.06.13.13,0,0,0-.06-.1v-.08a2,2,0,0,1-.14-.25h0V78.8c.17-.18.34-.38.5-.58h0l.16-.21.27-.35H57c.17-.23.35-.46.5-.68h0l.07-.11c.08-.11.16-.23.23-.35a3.24,3.24,0,0,0,.17-.32h0a3.12,3.12,0,0,0,.15-.39h0v-.1a1.21,1.21,0,0,1,.05-.18h0a.42.42,0,0,1,0-.24.11.11,0,0,0,0-.11,4.59,4.59,0,0,1,.65-.87h-.08c-.23.15-.38.36-.6.51s-.5-.07-.29-.23a4.77,4.77,0,0,0,.37-.34h0a10.7,10.7,0,0,1,.83-.82c.19-.14.35-.25.5-.38s0,0,.07-.06a2.41,2.41,0,0,1,.37-.41h0c1.56-1.5,4.16-1.43,6.22-2.38.81-.33,1.78.15,2.59,0a2.4,2.4,0,0,1,1.46.32c-1.45.79-2.81,1.68-4.13,2.52M69,74.4a1.21,1.21,0,0,1-.4.47c.2,0,.35.13.22.25a3.75,3.75,0,0,1-1.23.86h-.25l-.61.57c-.19.16-1.08,0-.81-.19s.8-.77,1.2-1.14c.23-.21.47-.41.68-.64a1.33,1.33,0,0,1,.35-.36c.13-.1,1-.18.85.15M61.51,50.06c-.16.32-.35.35-.49.65a1.31,1.31,0,0,1-.64.65c-.17,0-.33,0-.33-.17a2,2,0,0,1,1.3-1.46c.16,0,.16.17.16.33M48.05,60.76a.56.56,0,0,1-.17-.32,50,50,0,0,0,5.2-8.27,22.34,22.34,0,0,0,5.51-4.55,31.77,31.77,0,0,1,9.08-7.13,6.25,6.25,0,0,1,4.22.16c-.48.65-1.29.49-2,1a.57.57,0,0,1-.48-.17.62.62,0,0,0,.16-.49c-1.62,1.79-3.89,2.6-5.19,4.71-1,1.62-1.63,3.73-3.73,4.22-.65.16.16-.49-.16-.33-5,3.09-8.6,6.81-12.49,11.19M73,64.1c-.32,0-1,.17-.81-.16.17-.81,1.3-.81,2-1.13.32-.17.81-.49,1.13-.33.33.49.81.33,1.14.65-1,1-2.27.48-3.41,1m.16,11.47.06-.12a1.28,1.28,0,0,0,.11-.2l.09-.15.21-.35c0-.07.07-.12.1-.18l.17-.3c.08-.13,0-.24-.13-.28a4,4,0,0,1,1.12-1h0c.62-.32,1.24-.69,1.87-1l.26-.24a10.89,10.89,0,0,0-2.58,1.28,1.17,1.17,0,0,0-.27.15.43.43,0,0,1-.41-.15.24.24,0,0,1,0-.12c.17-.33.65-.48,1-.81.15,0,.32,0,.32.16,5.19-4.06,12.33-3.08,18.33-5.19l1.46-1c.81-.32,1.46-1.13,2.43-1.62a7.15,7.15,0,0,0,2.76-3.74.65.65,0,0,0-.16-.32,25.13,25.13,0,0,1-7.13,5.36c-3.42,1.78-7.14,1.45-10.72,1.94.17-.33.49-.33.82-.33,0-.48.32-.64.65-1H84c.15,0,.15-.32.32-.32s.81-.17.65-.17c-.49-.64-1.46.49-2.27,0,.32-.32.16-.81.48-1h.65a1.11,1.11,0,0,1,.32-.66c2.44-1.46,4.71-2.59,7-3.89-.48,0-.81.49-1.3.17.33,0,0-.49.33-.49,1.79-.49,3.24-1.46,5-2.11-.64,0-1.13.48-1.78,0,.33-.16.49-.49,1-.49V57c0-.17.17-.17.33-.17a.6.6,0,0,1-.33-.16c.17-.33.66-.16,1-.48-.17,0-.49,0-.49-.17A3.21,3.21,0,0,1,97,55c-.16-.33-.65,0-.65-.33,0-.16.16-.16.33-.16h-.33c-.33-.16-.16-.49-.16-.65,1-1.14,1-2.59,1.46-3.89-.16,0-.33,0-.33-.16-1.62,1.78-4.21,2.43-6.64,3.08H89.9a3.27,3.27,0,0,1-2.75-.17,11.27,11.27,0,0,1-1.63-1.29,18.61,18.61,0,0,0-4-2A36.49,36.49,0,0,0,69,47.62c1.78-1,3.75-1.06,5.67-1.62,2.76-.82,5.36-1.78,8.28-1.63a5.5,5.5,0,0,0-1.62,0c-2.28-.15-4.55.49-7,1-1.62.32-3.08,1-4.7,1.29-1,.33-1.46,1.3-2.6,1.14v-.48c1.62-2,3.57-3.9,6.16-4.06,2.93-.49,5.68,0,8.6.32a43.21,43.21,0,0,1,6.17,1.14c.81,0,1,1.3,1.62,1.46,1,.32,2,0,2.91.65,0-.33-.15-.65,0-1,.66-.65,1.47.17,2.12-.16,1.3-.81-1.14-2.27-1.78-3.41a.56.56,0,0,1,.15-.32c1.3,1.13,2.27,2.43,3.9,3.24.81.33,2.75.82,2.43-.16-.81-1.78-2.43-3.24-3.73-4.86V39.5c-.33,0-.33-.15-.48-.32v-.65c-.66-.32-.49-1-.82-1.46-.48-.8-.16-2-.48-2.92a16.4,16.4,0,0,1-.65-2.75c-.49-2.76-1.13-5.19-1.47-7.79-.32-3.08,1.79-5.52,3.25-8.28a13.8,13.8,0,0,1,4.55-5.19A14,14,0,0,1,102.54,5a13.4,13.4,0,0,1,5-3.25C109,1.09,110.39.54,111.85.06H.36V85.91H79.2c3.09-2.23,6.17-3.29,10.48-5.41,2-1,6.69-3.14,8.27-4.72m.06,0c.92-.92,1.85-1.91,2.77-2.9h0a54.23,54.23,0,0,1,5.41-5.52A16,16,0,0,1,108,65.92c.17-.17.17-.49.32-.65-.81.33-1.29,1-2.1,1.3-.17,0-.33-.16-.17-.33l1.74-1.3h-.11c-.17,0-.17-.15-.17-.32-2.1-.32-3.72,1.13-5.19,2.43-.32.16-.65-.16-.8-.16-2.44.81-4.23,2.92-6.66,3.9v-.33a30.18,30.18,0,0,1-2.91,1.13,17.23,17.23,0,0,1-4.06.17,56.33,56.33,0,0,0-5.9,1l-.17,0a13,13,0,0,0-3,1.22l-.12.06a3.11,3.11,0,0,1-.23.28,4.07,4.07,0,0,1-1.11,1,15.58,15.58,0,0,0-2.69,2.1.62.62,0,0,1-.26.09c-.87.83-1.73,1.67-2.62,2.49a.82.82,0,0,1-.49.06h0l.1-.15c.13-.24.27-.46.42-.69s.31-.51.48-.75.44-.67.69-1a.18.18,0,0,0,0-.22.28.28,0,0,0-.23-.07,14.84,14.84,0,0,1,2.73-2h0s-.26,0-.18-.16a3.29,3.29,0,0,1,.28-.44.78.78,0,0,0,0-.14.49.49,0,0,0-.12-.13,4.93,4.93,0,0,0-.76.53c-.38.35-.69,1.06-1.28,1h-.25a.49.49,0,0,1-.17-.06h0" transform="translate(0.04 -0.01)"/><path class="cls-3" d="M236.42,0H144.08a3.21,3.21,0,0,1,.88.41l2.33,1.25a7.57,7.57,0,0,1,3.09,2.6c.33.48.81,1.45.49,2.11-.33.81-.49,2.1-1.3,2.43a6.11,6.11,0,0,1-3.41.32,8.63,8.63,0,0,1-1.95-.32c2.44,1,4.71,2.11,6.33,4.38.17.33.81.48,1.47.48.15,0,.15.33.15.49-.32.32-.64.49-.48,1h.48c.81-.33.66-2,1.79-1.47a1.84,1.84,0,0,1,.65,2.44,16.76,16.76,0,0,1-1.95,1.62,1.39,1.39,0,0,0,0,1.13,5,5,0,0,1,.81,2c.49,1.14.65,2.43,1.14,3.57a22.59,22.59,0,0,1,1.13,7.3c0,1.3-.64,2.44-.16,3.74a14.5,14.5,0,0,0,1.78,3.4,24.45,24.45,0,0,1,1.79,2.6c1,1.61,2.76,3.24,2,5.18-.49,1.15-2.28,1-3.41,1.63-1,.81-.16,2.11.33,2.92.8,1.46-1,2.43-2.11,2.92.32.48,1,.32,1.13.65.17.81,1,1.3.49,2.11-.65,1-2.6,1.46-1.62,2.91.64,1.14.22,2.4-.17,3.57a4,4,0,0,1-2.91,2.44,6.73,6.73,0,0,1-3.09.16,2.35,2.35,0,0,0-1-.32c-2.76-.33-5.51-1.14-8.27-1.14a9.5,9.5,0,0,0-2.27.65,13.79,13.79,0,0,0-2,1.74h0l-.35.4-.21.25a1.15,1.15,0,0,0-.14.17,15.73,15.73,0,0,0-1.28,1.86.47.47,0,0,1-.07.12l-.12.23a16,16,0,0,0-1.23,3c-1.1,3.7-.62,6.89.15,7.67.21.21,5.35,1.8,8.94,3.39a31.85,31.85,0,0,1,3.82,1.94h90.68Z" transform="translate(0.04 -0.01)"/><path class="cls-4" d="M149.57,31.32c.65.17,1.63.17,1.63.49-.33,1.29-2.27,1.62-3.25,2.92h-.49c-.49.33-.32,1.14-.81,1.14a2.29,2.29,0,0,0-1.46.15,2.78,2.78,0,0,0,2.44,1,.71.71,0,0,1,.49.65.51.51,0,0,0,.32-.17c.16,0,.32,0,.32.17v.64c-.49.66-1.3.33-1.94.49a7.37,7.37,0,0,0,3.73,0c1-.32,0-1.94.65-2.76-.33,0,0-.48-.33-.48a5.9,5.9,0,0,1,1-1,1.2,1.2,0,0,0,1-.49c0-.32-.65-.49-.49-.81,1-.65,1.79-1.63,1.46-2.59-.16-.49-1.46-.49-2.27-.82a5.5,5.5,0,0,0-2.76.16,12.85,12.85,0,0,0-2.43.66,10.92,10.92,0,0,0-3.08,1.61,23.36,23.36,0,0,1,3.57-1,10.55,10.55,0,0,1,2.75,0" transform="translate(0.04 -0.01)"/><path class="cls-2" d="M13.08,139.67v16.12h7.37c5.53,0,8.75-2.95,8.75-8.2,0-4.89-3.22-7.92-8.75-7.92ZM0,128.54H19.68c14.19,0,22.94,7.27,22.94,19.25,0,7.74-3.78,13.55-10.32,16.68L52.56,193H37L19.83,167H13.08V193H0Z" transform="translate(0.04 -0.01)"/><path class="cls-2" d="M74.34,123l10.41-12.44H98.2L86.2,123Zm-12.71,5.53H99.22v11.13H74.71v14.92H95.54v11.15H74.71v16.12H99.22V193H61.63Z" transform="translate(0.04 -0.01)"/><path class="cls-2" d="M128.42,139.67v16.12h8.75c5.53,0,8.85-2.95,8.85-8.2,0-4.89-3.32-7.92-8.85-7.92Zm-13.08-11.15h21.28c14.18,0,22.85,7.27,22.85,19.25s-8.67,19.16-22.85,19.16h-8.2V193H115.34Z" transform="translate(0.04 -0.01)"/><path class="cls-2" d="M209.21,128.54h13.08v39.24c0,17-9.95,27.09-26.16,27.09s-26.08-10.13-26.08-27.09V128.54h13.09v40.35c0,8.66,4.88,13.73,13.08,13.73,8,0,13-5.07,13-13.73Z" transform="translate(0.04 -0.01)"/><path class="cls-2" d="M252.51,165v16.85h7.37c6.08,0,9.77-3.23,9.77-8.57S266,165,259.88,165Zm0-25.34v14.1H258c5,0,7.83-2.5,7.83-7.11,0-4.32-2.86-7-7.83-7Zm-13.08-11.15h18.33c13.46,0,21.55,6.64,21.55,17.51a15.09,15.09,0,0,1-6.81,12.71c6.81,3,10.6,8.56,10.6,15.3,0,11.78-9.13,19-24,19H239.43Z" transform="translate(0.04 -0.01)"/><polygon class="cls-2" points="297.41 128.52 310.49 128.52 310.49 181.13 335 181.13 335 193.02 297.41 193.02 297.41 128.52"/><rect class="cls-2" x="347.44" y="128.52" width="13.08" height="64.5"/><path class="cls-2" d="M429,160.79c0-12.35-8.66-21.84-20.73-21.84s-20.82,9.49-20.82,21.84,8.62,21.88,20.79,21.88S429,173.13,429,160.79m18.15,36.76a13.6,13.6,0,0,0,4.6-.74v11.06a17.24,17.24,0,0,1-6.81,1.19c-7.19,0-13.82-2.95-20.17-8.47l-7.66-6.82a34.27,34.27,0,0,1-8.84,1.1c-20.36,0-34.28-15.66-34.28-34.08s13.89-34.12,34.25-34.12,34.18,15.66,34.18,34.09a34.19,34.19,0,0,1-12.72,26.91l3.87,3.68c5,4.52,9.4,6.18,13.55,6.18" transform="translate(0.04 -0.01)"/><path class="cls-2" d="M493.88,128.54H507v39.24c0,17-10,27.09-26.17,27.09s-26.07-10.13-26.07-27.09V128.54h13.09v40.35c0,8.66,4.88,13.73,13.08,13.73,8,0,13-5.07,13-13.73Z" transform="translate(0.04 -0.01)"/><polygon class="cls-2" points="524.14 128.52 561.73 128.52 561.73 139.67 537.22 139.67 537.22 154.59 558.04 154.59 558.04 165.74 537.22 165.74 537.22 181.87 561.73 181.87 561.73 193.02 524.14 193.02 524.14 128.52"/><polygon class="cls-2" points="0.04 221.87 37.63 221.87 37.63 233.02 13.12 233.02 13.12 247.94 33.95 247.94 33.95 259.1 13.12 259.1 13.12 286.37 0.04 286.37 0.04 221.87"/><path class="cls-2" d="M63.1,233v16.13h7.38c5.53,0,8.75-2.95,8.75-8.2,0-4.89-3.22-7.93-8.75-7.93ZM50,221.88H69.74c14.19,0,22.94,7.28,22.94,19.26,0,7.74-3.77,13.54-10.32,16.67l20.27,28.57H87L69.83,260.3H63.1v26.08H50Z" transform="translate(0.04 -0.01)"/><path class="cls-2" d="M148.14,258.46l-8.85-24.23-8.84,24.23Zm-17.41-36.58h17.14l24.41,64.5H158.36l-6.17-16.77h-25.8l-6.17,16.77H106.31Z" transform="translate(0.04 -0.01)"/><polygon class="cls-2" points="183.18 221.87 199.95 221.87 228.79 268.03 228.79 221.87 241.87 221.87 241.87 286.37 225.1 286.37 196.26 240.02 196.26 286.37 183.18 286.37 183.18 221.87"/><path class="cls-2" d="M306.4,267.12,316.73,275a32.07,32.07,0,0,1-22.12,12.81l-8,13.36H275l8.13-13.54c-16.77-2.94-27.82-17.13-27.82-33.52,0-18.44,13.91-34.1,34.27-34.1,11.7,0,21.29,5.25,27.19,13.09l-10.33,8a20.17,20.17,0,0,0-16.86-8.84c-12.16,0-20.81,9.49-20.81,21.84S277.38,276,289.54,276a20.19,20.19,0,0,0,16.86-8.85" transform="translate(0.04 -0.01)"/><path class="cls-2" d="M362.22,258.46l-8.84-24.23-8.84,24.23Zm-17.41-36.58H362l24.42,64.5H372.45l-6.17-16.77h-25.8l-6.17,16.77H320.39Z" transform="translate(0.04 -0.01)"/><rect class="cls-2" x="397.27" y="221.87" width="13.08" height="64.5"/><path class="cls-2" d="M433,268.67c3.87,5,9,7.92,14.29,7.92s8.29-2.76,8.29-7.46c0-11.53-29.49-8.94-29.49-30.41,0-10.22,8.39-18.7,20.64-18.7,9.68,0,17.14,4.33,22.57,10.88l-9.57,8.55c-3.79-4.87-8-8-12.9-8-4.52,0-7.47,2.94-7.47,6.72,0,11.52,29.48,8.85,29.48,30.68-.17,12-9.57,19.34-21.37,19.34-10.87,0-18.24-4-24-10.77Z" transform="translate(0.04 -0.01)"/><polygon class="cls-2" points="483.49 221.87 521.08 221.87 521.08 233.02 496.57 233.02 496.57 247.94 517.4 247.94 517.4 259.1 496.57 259.1 496.57 275.22 521.08 275.22 521.08 286.37 483.49 286.37 483.49 221.87"/><path class="cls-5" d="M1245.09,224.81c0,5,3.77,8.6,9,8.6,7.15,0,14-5.73,16.94-8.53V213.67h-2.44c-10.93,0-23.48,1.27-23.48,11.16" transform="translate(0.04 -0.01)"/><path class="cls-6" d="M1375.79,131.32H942c3.33,3.36,14.79,22.51,19.93,49.18a36.56,36.56,0,0,1,22.79-7.39c10.09,0,19.06,3.81,24.59,10.47l.77.91-10.43,10-.89-1c-4.24-4.86-9-7.13-14.94-7.13-12.68,0-18.36,11.6-18.36,23.1,0,6.93,1.83,23.09,18.61,23.09,8.19,0,12.33-2.81,12.33-8.34,0,0-.09-5.4-.12-7.18H983.39V203.9h28.49v18.22c0,4.75-.2,8.7-2.62,12.85-4.58,7.65-16.1,10.38-24.58,10.38-9.87,0-17.91-2.48-23.86-7.11-5.44,24-15.54,40.53-19.51,44.49h434.81c16-15.09,30.71-46.77,30.71-76.42,0-29.35-13.67-57.62-31-75m-300.31,44.26c-3,13.83-3,13.83-4.33,13.83l-4.11-.52a15.6,15.6,0,0,0-9.77,3.23l-3.35,3.22a19.51,19.51,0,0,0-3.31,6.38v42.34h-15.78V174.91h15.35s.2,5.36.31,8.52a34.7,34.7,0,0,1,3.37-4.09,22.66,22.66,0,0,1,15.23-5.85l6.69.66ZM1146,213.4h-43.9a26.3,26.3,0,0,0,2.65,10.55,16.17,16.17,0,0,0,13.75,8.18c5.51,0,11.3-2.71,15.89-7.44l.9-.93,10.32,10-.92.92c-7.09,7.09-15.41,10.38-26.19,10.38-20.56,0-32.85-13.52-32.85-36.18,0-17.12,9.72-35.54,31-35.54,18.36,0,29.78,12.79,29.78,33.37Zm71.64-24.64s-20-.11-22.33-.11v55.4h-16V188.67c-2.3,0-22.33.11-22.33.11V174.91h60.69ZM1287,244.05h-15.58s-.21-3.43-.32-5.3c-5.2,3.41-11.82,6.85-19.77,6.85-12.24,0-21.81-9.14-21.81-20.79,0-8.47,5.25-16,13.72-19.77,8.06-3.56,17.14-3.51,25.91-3.46h1.6c-.18-9.83-2.28-15.27-11.85-15.27-5.43,0-10.19,2.27-15.4,7.34l-.9.87-10.21-9.85.93-.93c6.87-6.87,16-10.51,26.31-10.51,9,0,20.22,3.5,24.78,13.34,1.71,3.77,2.55,8.34,2.55,14Z" transform="translate(0.04 -0.01)"/><path class="cls-5" d="M1117.52,186.06c-10.4,0-13.63,9-14.63,14.12h28v-.26c0-7.77-5.87-13.86-13.34-13.86" transform="translate(0.04 -0.01)"/><path class="cls-7" d="M1432.34,285.14h-32.5l4.48-4.45c7.36-7.31,28.35-36.67,28.35-74.56,0-37.25-22.22-67.63-27.72-73.16l-4.41-4.43h31.51l.76.76c17.34,17.33,27.7,46,27.7,76.83s-11.28,63.08-27.42,78.3ZM1412,279.93h18.35c14.79-14.59,25-44.72,25-73.8s-9.48-55.93-25.41-72.39h-17.61c7.83,10.25,25.6,37.39,25.6,72.39,0,34.21-16.47,61.9-26,73.8" transform="translate(0.04 -0.01)"/><path class="cls-7" d="M1485.17,285.14h-32.51l4.5-4.46c7.35-7.28,28.36-36.61,28.36-74.55,0-37.21-22.23-67.62-27.73-73.16l-4.41-4.43h31.52l.76.76c17.34,17.34,27.69,46.06,27.69,76.83s-11.28,63.08-27.43,78.3Zm-20.42-5.21h18.34c14.79-14.6,25.06-44.73,25.06-73.8s-9.49-55.92-25.42-72.39h-17.62c7.83,10.26,25.61,37.42,25.61,72.39,0,34.24-16.47,61.91-26,73.8" transform="translate(0.04 -0.01)"/><path class="cls-7" d="M909.05,285.29H876.54l4.5-4.45c7.36-7.29,28.36-36.62,28.36-74.56,0-37.18-22.22-67.61-27.72-73.15l-4.41-4.46h31.51l.76.76c17.35,17.34,27.69,46.06,27.69,76.83s-11.27,63.08-27.42,78.3Zm-20.42-5.21H907c14.79-14.59,25.06-44.72,25.06-73.8s-9.49-55.92-25.42-72.38H889c7.82,10.26,25.61,37.43,25.61,72.38,0,34.25-16.47,61.92-26,73.8" transform="translate(0.04 -0.01)"/><path class="cls-8" d="M1242.49,224.81c0,6.39,5,11.2,11.58,11.2,7.83,0,15.1-5.79,18.74-9.24l.8-.77V211.05h-5c-7.13,0-26.08,0-26.08,13.76m25.92-1.06c-2.88,2.59-8.68,7.06-14.34,7.06-3.75,0-6.37-2.47-6.37-6,0-5.9,6.38-8.54,20.71-8.56Zm-134.94-21.22v-2.6c0-9.24-7-16.47-16-16.47s-15.17,5.91-17.19,16.22l-.61,3.1h31.14Zm-27.22-4.95c1.53-4.58,4.71-8.92,11.27-8.92a10.76,10.76,0,0,1,10.52,8.92Zm271.38-68.1-.76-.76H935.72l4.4,4.44c2.62,2.64,14.12,21.34,19.23,47.83l.8,4.17,3.35-2.61a34.05,34.05,0,0,1,21.19-6.84c8.83,0,16.68,3.12,21.78,8.61l-6.71,6.4a21.19,21.19,0,0,0-16-7c-14.48,0-21,12.91-21,25.7,0,16.09,7.92,25.69,21.21,25.69,13,0,14.93-6.85,14.93-11l-.16-9.74H986v-7.89h23.28V222.1c0,4.49-.16,7.94-2.24,11.51-3.76,6.3-13.94,9.11-22.35,9.11-9.19,0-16.68-2.2-22.26-6.55l-3.23-2.52-.91,4c-5.36,23.65-15.16,39.58-18.81,43.21L935,285.31h442.18l.75-.71c15.67-14.78,31.53-46.43,31.53-78.31,0-27.78-12.19-57.22-31.81-76.83m-2.55,150.65H946.65c4.65-6.87,11.36-19.95,15.83-37.62,6,3.61,13.48,5.44,22.21,5.44,9.15,0,21.68-3,26.83-11.67,2.75-4.7,3-9.2,3-14.16V201.3h-33.7v18.3h12.9l.08,4.57c0,1.57,0,5.73-9.73,5.73-13.93,0-16-12.83-16-20.48,0-10.2,4.88-20.49,15.76-20.49,5.21,0,9.22,1.92,13,6.24l2.68,3,14.1-13.5-2.32-2.78c-6-7.25-15.73-11.41-26.6-11.41a40,40,0,0,0-21,5.63c-4.37-19.84-11.85-34.85-16.55-42.2h427.59c18.24,18.66,29.54,46.29,29.54,72.38,0,29.58-14.89,59.81-29.16,73.82M1052.84,176.77l-.16-4.47h-20.46v74.37h21V202.11a17.18,17.18,0,0,1,2.52-4.91l3.07-3a12.89,12.89,0,0,1,7.91-2.74l4.44.54c3.38,0,3.38,0,6.87-15.89l.92-4.27-9.85-1a25.22,25.22,0,0,0-16.24,5.88m17.4,9.9-3.21-.39a18.47,18.47,0,0,0-11.58,4l-3.57,3.48a21.76,21.76,0,0,0-3.78,7.27l-.1,40.47h-10.58V177.51h10.24l.47,13.1,5.28-6.73a18.81,18.81,0,0,1,2.19-2.61,20,20,0,0,1,13.23-5.19l3.78.38c-1.15,5.22-1.91,8.63-2.37,10.21m62.33,36.21c-4.11,4.22-9.22,6.65-14,6.65a13.66,13.66,0,0,1-11.44-6.78,21.87,21.87,0,0,1-2.08-6.75h43.45l.65-9.27c0-21.85-12.71-36-32.38-36-23.12,0-33.65,19.77-33.65,38.14,0,23.93,13.58,38.78,35.45,38.78,11.52,0,20.43-3.54,28-11.15l2.77-2.79-14.08-13.66Zm9.35,10.91c-6.35,5.92-13.82,8.69-23.38,8.69-19.22,0-30.24-12.24-30.24-33.58,0-15.86,8.9-32.94,28.44-32.94,17,0,27.18,11.5,27.18,30.58l-.3,4.25h-44.21l.14,2.74a29.11,29.11,0,0,0,2.94,11.65,18.92,18.92,0,0,0,16,9.55c5.83,0,11.89-2.65,16.82-7.3Zm117.65-63.12c-11,0-20.77,3.9-28.15,11.27l-2.8,2.79,13.88,13.46,2.71-2.62c4.7-4.57,8.89-6.6,13.59-6.6,6.32,0,8.62,2.32,9.14,10h-2c-7.48,0-16.12.28-23.83,3.69-9.42,4.15-15.28,12.64-15.28,22.15,0,13.12,10.73,23.39,24.42,23.39a35.7,35.7,0,0,0,17.43-5l.22,3.43h20.62V200.57c0-6-.91-11-2.79-15.1-5.07-10.94-17.34-14.84-27.14-14.84m24.72,70.82h-10.52l-.45-7.35-3.75,2.47c-4.55,3-10.75,6.43-18.34,6.43-10.77,0-19.21-8-19.21-18.19,0-7.42,4.66-14.08,12.17-17.39,6.79-3,14.46-3.25,21.73-3.25l7.38.06v-2.69c-.17-9.25-2-17.82-14.45-17.82-5.83,0-10.9,2.23-16.29,7.19l-6.45-6.25a33.9,33.9,0,0,1,23.51-8.83c8.19,0,18.38,3.11,22.41,11.81,1.56,3.43,2.31,7.65,2.31,12.93Zm-129.92-50.07H1157l19.7-.11v55.4H1198v-55.4l19.72.11h2.62V172.3h-65.9Zm5.2-13.87h55.49v8.64c-5.51,0-17.95-.1-19.73-.1h-2.6v55.4H1182v-55.4h-2.6c-1.78,0-14.22.06-19.73.1Z" transform="translate(0.04 -0.01)"/><path class="cls-1" d="M1299.69,317.3h-12.53l3.63,3.63c1.15,1.16,7,9.07,7,18.68a29.88,29.88,0,0,1-7.2,19l-3.67,3.64h12.78l.61-.59c4.68-4.4,7.81-13.28,7.81-22.09s-2.92-16.77-7.85-21.7Z" transform="translate(0.04 -0.01)"/><path class="cls-1" d="M1327.89,317.3h-12.52l3.61,3.63c1.17,1.16,7.06,9.07,7.06,18.68a29.77,29.77,0,0,1-7.22,19l-3.65,3.64H1328l.63-.59c4.67-4.4,7.82-13.28,7.82-22.09s-2.94-16.77-7.87-21.7Z" transform="translate(0.04 -0.01)"/><path class="cls-1" d="M1356.72,317.91l-.64-.61h-12.5l3.62,3.63c1.16,1.16,7,9.07,7,18.68a29.87,29.87,0,0,1-7.21,19l-3.66,3.64h12.76l.63-.59c4.68-4.4,7.81-13.28,7.81-22.09s-3-16.77-7.86-21.7" transform="translate(0.04 -0.01)"/><polygon class="cls-1" points="966.8 360.69 963.35 360.69 959.86 360.69 959.86 319.35 966.07 319.35 972.31 319.35 979.46 354.24 979.46 319.35 982.92 319.35 986.41 319.35 986.41 360.69 980.22 360.69 974.01 360.69 966.8 325.5 966.8 360.69"/><path class="cls-1" d="M999,358.15q-2.9-3.16-2.9-10.87v-17q0-5.77,3.21-8.64t9.65-2.87q6.45,0,9.67,2.87t3.22,8.64v17q0,7.71-2.9,10.87t-10,3.17q-7.06,0-10-3.17m13.42-4.68q1-1.65,1-5.83v-17a6.69,6.69,0,0,0-1.12-4.21,4,4,0,0,0-3.3-1.44,3.91,3.91,0,0,0-3.28,1.44,6.81,6.81,0,0,0-1.11,4.21v17q0,4.19,1,5.83a4.44,4.44,0,0,0,6.25.64,4.3,4.3,0,0,0,.64-.64" transform="translate(0.04 -0.01)"/><path class="cls-1" d="M1031.45,319.36h12.42c4.43,0,7.6.83,9.49,2.47s2.84,4.39,2.84,8.26c0,4.37-1,7.32-2.87,8.85a10.89,10.89,0,0,1-4.42,1.78h.47a6.21,6.21,0,0,1,5.22,2.27q1.79,2.28,1.57,6.49c-.06,1.6-.07,3.27-.06,5s.1,3.16.18,4.09a9.82,9.82,0,0,0,.35,2.09h-8.44a11,11,0,0,1-.24-2c-.06-.92-.09-2.29-.09-4.13v-5q.06-3.1-1.17-4.38c-.82-.85-2.25-1.27-4.28-1.27H1040v16.78h-8.46Zm8.46,16.14h2.35c2.18,0,3.64-.41,4.38-1.22s1.1-2.42,1.1-4.84c0-2.27-.39-3.81-1.16-4.63s-2.21-1.23-4.32-1.23H1040Z" transform="translate(0.04 -0.01)"/><polygon class="cls-1" points="1071.74 360.69 1068.28 360.69 1064.79 360.69 1064.79 319.35 1070.71 319.35 1076.66 319.35 1083.27 350.99 1083.24 350.99 1089.81 319.35 1095.7 319.35 1101.62 319.35 1101.62 360.69 1098.16 360.69 1094.68 360.69 1094.68 325.97 1094.69 325.97 1087.44 360.69 1083.22 360.69 1079 360.69 1071.75 325.82 1071.74 325.82 1071.74 360.69"/><path class="cls-1" d="M1119.53,319.36h9.94l9.37,41.34h-8.17l-1.64-8.93h-9l-1.7,8.93h-8.17Zm1.62,26.25H1128l-3.36-18.51h0Z" transform="translate(0.04 -0.01)"/><polygon class="cls-1" points="1154.43 360.69 1150.98 360.69 1147.49 360.69 1147.49 319.35 1153.7 319.35 1159.94 319.35 1167.09 354.24 1167.09 319.35 1170.55 319.35 1174.03 319.35 1174.03 360.69 1167.85 360.69 1161.64 360.69 1154.43 325.5 1154.43 360.69"/><path class="cls-1" d="M1184.07,319.36h11.13q8,0,11.37,3.15t3.4,10.54v11.62q0,9.31-3,12.7t-11.3,3.3h-11.6Zm8.46,35.13h2.23c2.66,0,4.44-.54,5.36-1.62s1.38-3.18,1.38-6.29V332.93c0-2.79-.51-4.72-1.54-5.77s-2.9-1.58-5.64-1.58h-1.79Z" transform="translate(0.04 -0.01)"/><polygon class="cls-1" points="1219.17 319.35 1223.39 319.35 1227.64 319.35 1227.64 360.69 1223.42 360.69 1219.17 360.69 1219.17 319.35"/><polygon class="cls-1" points="1237.39 360.69 1237.39 319.35 1258.05 319.35 1258.05 322.43 1258.05 325.5 1245.86 325.5 1245.86 336.43 1257.64 336.43 1257.64 339.5 1257.64 342.58 1245.86 342.58 1245.86 354.54 1258.28 354.54 1258.28 357.61 1258.28 360.69 1237.39 360.69"/><path class="cls-1" d="M959.12,60.45h12.43c4.43,0,7.6.82,9.49,2.46s2.84,4.4,2.84,8.26q0,6.57-2.87,8.85a10.86,10.86,0,0,1-4.43,1.79h.47a6.22,6.22,0,0,1,5.23,2.27c1.19,1.51,1.71,3.68,1.57,6.49-.06,1.6-.08,3.27-.06,5s.08,3.1.17,4.1a9.91,9.91,0,0,0,.35,2.1h-8.44a9.47,9.47,0,0,1-.29-2c-.06-.92-.09-2.3-.09-4.13v-5q.06-3.11-1.17-4.38c-.82-.85-2.25-1.28-4.28-1.28h-2.46v16.88h-8.47Zm8.47,18.14H970c2.19,0,3.65-.41,4.39-1.22s1.09-2.43,1.09-4.85c0-2.26-.38-3.81-1.15-4.63S972,66.67,970,66.67h-2.34Z" transform="translate(0.04 -0.01)"/><path class="cls-1" d="M992.87,101.79V60.45h20.65V66.6h-12.18V77.53h11.77v6.14h-11.77v12h12.42v6.15Zm5.92-44.56,5.15-7.88h8.71l-7.71,7.88Z" transform="translate(0.04 -0.01)"/><path class="cls-1" d="M1039,73.25V72a8.61,8.61,0,0,0-.82-4.63,3.37,3.37,0,0,0-3.07-1.34,4.06,4.06,0,0,0-3.24,1.24,5.57,5.57,0,0,0-1.08,3.74,4.68,4.68,0,0,0,1.29,3.31,14.6,14.6,0,0,0,4.44,2.87q6.3,3,8.81,5.83a10.12,10.12,0,0,1,2.53,7q0,6.21-3.24,9.3t-9.73,3.09q-7.1,0-10-2.76t-2.94-9V89.06h8.35v1.23a7,7,0,0,0,1.09,4.48,4.17,4.17,0,0,0,3.52,1.49,4.27,4.27,0,0,0,3.45-1.34,6.19,6.19,0,0,0,1.14-4.08,4.87,4.87,0,0,0-1.4-3.48,16.31,16.31,0,0,0-4.83-3.11q-6-2.84-8.43-5.59a9.82,9.82,0,0,1-2.41-6.77q0-6,3.23-9c2.15-2,5.41-3,9.74-3s7.59.92,9.43,2.78,2.57,4.59,2.55,8.49V73.3Z" transform="translate(0.04 -0.01)"/><polygon class="cls-1" points="1057.33 101.77 1057.33 60.44 1077.98 60.44 1077.98 63.51 1077.98 66.59 1065.79 66.59 1065.79 77.52 1077.57 77.52 1077.57 80.59 1077.57 83.67 1065.79 83.67 1065.79 95.62 1078.21 95.62 1078.21 98.7 1078.21 101.77 1057.33 101.77"/><path class="cls-1" d="M1095,60.45H1105l9.37,41.34h-8.17l-1.63-8.94h-9l-1.7,8.94h-8.17Zm1.62,26.25h6.78l-3.36-18.52h0Z" transform="translate(0.04 -0.01)"/><path class="cls-1" d="M1148.07,90.19q0,6.12-3.18,9.17t-9.53,3q-6.36,0-9.54-3t-3.18-9.17V60.45H1131V90.74c0,2.05.32,3.49,1,4.3a5.35,5.35,0,0,0,6.77,0,7.2,7.2,0,0,0,1-4.3V60.45h8.38Z" transform="translate(0.04 -0.01)"/></svg>